<svg width="30" height="31" viewBox="0 0 30 31" fill="none" xmlns="http://www.w3.org/2000/svg">
<path d="M14.5833 3.91667C11.4891 3.91667 8.52168 5.14583 6.33376 7.33376C4.14583 9.52168 2.91667 12.4891 2.91667 15.5833C2.91667 18.6775 4.14583 21.645 6.33376 23.8329C8.52168 26.0208 11.4891 27.25 14.5833 27.25C17.6775 27.25 20.645 26.0208 22.8329 23.8329C25.0208 21.645 26.25 18.6775 26.25 15.5833C26.25 12.4891 25.0208 9.52168 22.8329 7.33376C20.645 5.14583 17.6775 3.91667 14.5833 3.91667V3.91667ZM0 15.5833C0 7.52896 6.52896 1 14.5833 1C22.6377 1 29.1667 7.52896 29.1667 15.5833C29.1667 23.6377 22.6377 30.1667 14.5833 30.1667C6.52896 30.1667 0 23.6377 0 15.5833Z" fill="#4A4A4A"/>
<path d="M15.3271 18.3057H12.7598C12.7669 17.654 12.8206 17.0954 12.9209 16.6299C13.0283 16.1644 13.2038 15.7454 13.4473 15.373C13.6908 14.9935 14.0202 14.6068 14.4355 14.2129C14.765 13.9049 15.0586 13.6149 15.3164 13.3428C15.5814 13.0635 15.7891 12.7734 15.9395 12.4727C16.0898 12.1647 16.165 11.8174 16.165 11.4307C16.165 10.9938 16.0934 10.6286 15.9502 10.335C15.8141 10.0413 15.61 9.81934 15.3379 9.66895C15.0729 9.51139 14.7399 9.43262 14.3389 9.43262C14.0094 9.43262 13.6979 9.50065 13.4043 9.63672C13.1107 9.77279 12.8743 9.98405 12.6953 10.2705C12.5163 10.5498 12.4196 10.915 12.4053 11.3662H9.55859C9.58008 10.4281 9.80208 9.64746 10.2246 9.02441C10.6471 8.39421 11.2165 7.92513 11.9326 7.61719C12.6488 7.30208 13.4508 7.14453 14.3389 7.14453C15.32 7.14453 16.1579 7.30924 16.8525 7.63867C17.5544 7.96094 18.0879 8.43359 18.4531 9.05664C18.8255 9.67969 19.0117 10.4316 19.0117 11.3125C19.0117 11.9427 18.89 12.5085 18.6465 13.0098C18.403 13.5039 18.0807 13.9658 17.6797 14.3955C17.2786 14.8252 16.8454 15.2585 16.3799 15.6953C15.9717 16.0605 15.696 16.4508 15.5527 16.8662C15.4095 17.2816 15.3343 17.7614 15.3271 18.3057ZM12.4912 21.6465C12.4912 21.2168 12.6344 20.8587 12.9209 20.5723C13.2145 20.2858 13.6084 20.1426 14.1025 20.1426C14.5967 20.1426 14.987 20.2858 15.2734 20.5723C15.5671 20.8587 15.7139 21.2168 15.7139 21.6465C15.7139 22.0618 15.5671 22.4128 15.2734 22.6992C14.987 22.9857 14.5967 23.1289 14.1025 23.1289C13.6084 23.1289 13.2145 22.9857 12.9209 22.6992C12.6344 22.4128 12.4912 22.0618 12.4912 21.6465Z" fill="#4A4A4A"/>
</svg>
