<svg width="35" height="36" viewBox="0 0 35 36" fill="none" xmlns="http://www.w3.org/2000/svg">
<path d="M4.85712 29.8428V7.99997C4.85712 7.2422 5.15814 6.51548 5.69395 5.97966C6.22977 5.44384 6.9565 5.14282 7.71426 5.14282H27.7143C28.472 5.14282 29.1987 5.44384 29.7346 5.97966C30.2704 6.51548 30.5714 7.2422 30.5714 7.99997V22.2857C30.5714 23.0434 30.2704 23.7702 29.7346 24.306C29.1987 24.8418 28.472 25.1428 27.7143 25.1428H11.9443C11.516 25.1429 11.0933 25.2392 10.7073 25.4246C10.3213 25.6101 9.98191 25.88 9.71426 26.2143L6.38426 30.3771C6.27344 30.516 6.1222 30.617 5.95146 30.6662C5.78072 30.7154 5.59892 30.7102 5.4312 30.6516C5.26349 30.5929 5.11816 30.4835 5.01531 30.3387C4.91246 30.1938 4.85718 30.0205 4.85712 29.8428V29.8428Z" stroke="#4A4A4A" stroke-width="1.5"/>
<path d="M17.5 13C17.7652 13 18.0196 13.1054 18.2071 13.2929C18.3946 13.4804 18.5 13.7348 18.5 14V20C18.5 20.2652 18.3946 20.5196 18.2071 20.7071C18.0196 20.8946 17.7652 21 17.5 21C17.2348 21 16.9804 20.8946 16.7929 20.7071C16.6054 20.5196 16.5 20.2652 16.5 20V14C16.5 13.7348 16.6054 13.4804 16.7929 13.2929C16.9804 13.1054 17.2348 13 17.5 13ZM19 10.5C19 10.8978 18.842 11.2794 18.5607 11.5607C18.2794 11.842 17.8978 12 17.5 12C17.1022 12 16.7206 11.842 16.4393 11.5607C16.158 11.2794 16 10.8978 16 10.5C16 10.1022 16.158 9.72064 16.4393 9.43934C16.7206 9.15804 17.1022 9 17.5 9C17.8978 9 18.2794 9.15804 18.5607 9.43934C18.842 9.72064 19 10.1022 19 10.5Z" fill="#4A4A4A"/>
</svg>
