<svg width="28" height="28" viewBox="0 0 28 28" fill="none" xmlns="http://www.w3.org/2000/svg">
<path d="M24.5 5.83333H3.50002C2.88118 5.83333 2.28769 6.07916 1.8501 6.51675C1.41252 6.95433 1.16669 7.54782 1.16669 8.16666V19.8333C1.16669 20.4522 1.41252 21.0457 1.8501 21.4832C2.28769 21.9208 2.88118 22.1667 3.50002 22.1667H24.5C25.1189 22.1667 25.7124 21.9208 26.1499 21.4832C26.5875 21.0457 26.8334 20.4522 26.8334 19.8333V8.16666C26.8334 7.54782 26.5875 6.95433 26.1499 6.51675C25.7124 6.07916 25.1189 5.83333 24.5 5.83333ZM15.1667 8.16666H17.5V10.5H15.1667V8.16666ZM15.1667 12.8333H17.5V15.1667H15.1667V12.8333ZM10.5 8.16666H12.8334V10.5H10.5V8.16666ZM10.5 12.8333H12.8334V15.1667H10.5V12.8333ZM5.83335 8.16666H8.16669V10.5H5.83335V8.16666ZM5.83335 12.8333H8.16669V15.1667H5.83335V12.8333ZM19.8334 19.8333H8.16669V17.5H19.8334V19.8333ZM22.1667 15.1667H19.8334V12.8333H22.1667V15.1667ZM22.1667 10.5H19.8334V8.16666H22.1667V10.5Z" fill="#6F6161"/>
</svg>
